<?xml version="1.0" standalone="no"?>
<!DOCTYPE svg PUBLIC "-//W3C//DTD SVG 20010904//EN"
 "http://www.w3.org/TR/2001/REC-SVG-20010904/DTD/svg10.dtd">
<svg version="1.0" xmlns="http://www.w3.org/2000/svg"
 width="128.000000pt" height="128.000000pt" viewBox="0 0 128.000000 128.000000"
 preserveAspectRatio="xMidYMid meet">
<g transform="translate(0.000000,128.000000) scale(0.100000,-0.100000)"
fill="#000000" stroke="none">
<path d="M520 1265 c0 -12 -13 -15 -55 -15 -42 0 -55 -3 -55 -15 0 -10 -10
-15 -29 -15 -16 0 -31 -6 -35 -15 -3 -8 -17 -15 -31 -15 -16 0 -25 -6 -25 -15
0 -8 -5 -15 -11 -15 -7 0 -22 -11 -35 -25 -13 -14 -28 -25 -34 -25 -5 0 -10
-5 -10 -10 0 -6 -18 -27 -40 -49 -22 -21 -40 -44 -40 -50 0 -6 -7 -11 -15 -11
-10 0 -15 -10 -15 -30 0 -20 -5 -30 -15 -30 -10 0 -15 -10 -15 -30 0 -20 -5
-30 -15 -30 -12 0 -15 -13 -15 -55 0 -42 -3 -55 -15 -55 -12 0 -15 -20 -15
-120 0 -100 3 -120 15 -120 12 0 15 -13 15 -55 0 -42 3 -55 15 -55 10 0 15
-10 15 -30 0 -20 5 -30 15 -30 10 0 15 -10 15 -30 0 -20 5 -30 15 -30 8 0 15
-5 15 -11 0 -7 11 -22 25 -35 14 -13 25 -28 25 -34 0 -5 7 -10 15 -10 8 0 15
-7 15 -15 0 -8 5 -15 10 -15 6 0 21 -11 34 -25 13 -14 28 -25 35 -25 6 0 11
-7 11 -15 0 -10 10 -15 30 -15 20 0 30 -5 30 -15 0 -10 10 -15 30 -15 20 0 30
-5 30 -15 0 -12 13 -15 55 -15 42 0 55 -3 55 -15 0 -22 195 -22 216 0 10 9 34
15 65 15 37 0 49 4 49 15 0 10 10 15 30 15 17 0 30 4 30 9 0 5 10 13 22 17 12
3 28 13 36 20 7 8 22 14 33 14 10 0 19 7 19 15 0 8 7 15 15 15 8 0 15 5 15 11
0 13 55 69 68 69 6 0 13 13 17 30 4 16 11 30 16 30 5 0 9 7 9 15 0 8 7 15 15
15 10 0 15 10 15 29 0 16 7 36 15 45 8 8 15 28 15 45 0 21 5 31 15 31 8 0 15
4 15 9 0 5 -7 11 -15 15 -8 3 -15 10 -15 16 0 7 -13 25 -30 42 -16 16 -30 36
-30 44 0 8 -7 14 -15 14 -8 0 -15 7 -15 15 0 8 -7 15 -15 15 -8 0 -15 7 -15
15 0 8 -7 15 -15 15 -8 0 -15 5 -15 11 0 6 -20 30 -44 55 -25 24 -49 44 -55
44 -6 0 -11 9 -11 20 0 11 -7 20 -15 20 -8 0 -15 7 -15 15 0 8 -5 15 -11 15
-6 0 -24 13 -40 29 -16 16 -29 34 -29 40 0 6 -7 11 -15 11 -8 0 -15 7 -15 15
0 8 -7 15 -15 15 -8 0 -15 7 -15 15 0 8 -7 15 -15 15 -8 0 -15 -7 -15 -15 0
-8 -7 -15 -15 -15 -8 0 -15 -7 -15 -15 0 -8 -7 -15 -15 -15 -8 0 -15 -7 -15
-15 0 -8 -7 -15 -15 -15 -8 0 -15 -7 -15 -15 0 -8 -7 -15 -15 -15 -11 0 -15
-11 -15 -40 0 -29 4 -40 15 -40 8 0 15 -7 15 -15 0 -8 7 -15 15 -15 8 0 15 -7
15 -15 0 -9 9 -15 24 -15 13 0 26 7 30 15 9 26 47 17 82 -20 19 -18 34 -39 34
-45 0 -5 7 -10 15 -10 8 0 15 -7 15 -15 0 -8 7 -15 15 -15 8 0 15 -7 15 -15 0
-8 7 -15 15 -15 8 0 15 -7 15 -15 0 -8 7 -15 15 -15 8 0 15 -7 15 -15 0 -8 5
-15 10 -15 6 0 27 -15 45 -34 27 -26 35 -41 35 -70 0 -25 -4 -36 -15 -36 -10
0 -15 -10 -15 -30 0 -20 -5 -30 -15 -30 -8 0 -15 -7 -15 -15 0 -8 -7 -15 -15
-15 -8 0 -15 -7 -15 -15 0 -8 -7 -15 -15 -15 -8 0 -15 -7 -15 -15 0 -8 -7 -15
-15 -15 -8 0 -15 -7 -15 -15 0 -8 -7 -15 -15 -15 -8 0 -15 -4 -15 -10 0 -5
-12 -13 -27 -16 -15 -4 -34 -13 -41 -21 -7 -7 -26 -13 -42 -13 -16 0 -30 -6
-32 -12 -6 -17 -245 -18 -256 -2 -4 6 -25 14 -47 17 -22 4 -41 11 -43 17 -2 5
-10 10 -18 10 -8 0 -14 7 -14 15 0 10 -10 15 -30 15 -20 0 -30 5 -30 15 0 8
-7 15 -15 15 -8 0 -15 7 -15 15 0 8 -7 15 -15 15 -8 0 -15 7 -15 15 0 8 -7 15
-15 15 -10 0 -15 10 -15 30 0 20 -5 30 -15 30 -8 0 -15 7 -15 15 0 8 -4 15
-10 15 -5 0 -12 17 -16 38 -4 20 -12 40 -18 44 -15 10 -15 286 0 296 6 4 14
24 18 45 4 20 11 37 16 37 6 0 10 7 10 15 0 8 7 15 15 15 8 0 15 9 15 19 0 11
7 26 15 35 8 8 15 19 15 25 0 6 7 11 15 11 8 0 15 7 15 15 0 8 5 15 11 15 6 0
17 7 25 15 9 8 24 15 35 15 10 0 19 7 19 15 0 8 6 15 14 15 8 0 16 5 18 10 2
6 21 13 43 17 22 3 43 11 47 17 11 16 250 15 256 -1 2 -7 16 -13 32 -13 16 0
35 -6 42 -13 7 -8 26 -17 41 -21 15 -3 27 -11 27 -16 0 -6 7 -10 15 -10 8 0
15 -7 15 -15 0 -8 7 -15 15 -15 8 0 15 -7 15 -15 0 -8 7 -15 15 -15 8 0 15 -7
15 -15 0 -8 7 -15 15 -15 8 0 15 -7 15 -15 0 -8 7 -15 15 -15 9 0 15 -9 15
-24 0 -13 7 -26 15 -30 8 -3 15 -17 15 -31 0 -15 7 -33 15 -41 8 -9 15 -29 15
-45 0 -16 5 -29 10 -29 6 0 10 -7 10 -15 0 -8 7 -15 15 -15 8 0 15 -7 15 -15
0 -8 7 -15 15 -15 8 0 15 -7 15 -15 0 -8 7 -15 15 -15 8 0 15 -7 15 -15 0 -8
7 -15 15 -15 22 0 22 195 0 204 -10 3 -15 19 -15 46 0 29 -4 40 -15 40 -10 0
-15 10 -15 30 0 20 -5 30 -15 30 -8 0 -15 7 -15 15 0 8 -4 15 -10 15 -5 0 -10
6 -10 14 0 8 -20 35 -45 59 -25 25 -45 50 -45 56 0 6 -7 11 -15 11 -8 0 -15 6
-15 14 0 8 -13 17 -30 21 -16 4 -30 11 -30 16 0 5 -6 9 -14 9 -8 0 -21 6 -28
13 -7 8 -26 17 -41 21 -15 3 -27 11 -27 16 0 6 -22 10 -50 10 -38 0 -50 4 -50
15 0 12 -19 15 -115 15 -96 0 -115 -3 -115 -15z"/>
<path d="M550 769 c0 -14 -25 -39 -39 -39 -6 0 -11 -7 -11 -15 0 -8 -7 -15
-15 -15 -8 0 -15 -7 -15 -15 0 -8 -7 -15 -15 -15 -8 0 -15 -7 -15 -15 0 -8 -7
-15 -15 -15 -8 0 -15 -7 -15 -15 0 -8 -7 -15 -15 -15 -8 0 -15 -7 -15 -15 0
-8 -7 -15 -15 -15 -8 0 -15 -7 -15 -15 0 -8 -7 -15 -15 -15 -8 0 -15 -7 -15
-15 0 -8 -7 -15 -15 -15 -8 0 -15 -7 -15 -15 0 -8 -7 -15 -16 -15 -9 0 -14 -6
-11 -12 3 -9 34 -13 108 -13 l105 0 45 47 c35 37 50 46 67 41 12 -3 22 -9 22
-14 0 -5 7 -9 15 -9 8 0 15 -7 15 -15 0 -8 7 -15 15 -15 8 0 15 -6 15 -14 0
-19 32 -26 123 -26 63 0 77 3 77 16 0 18 -53 74 -69 74 -6 0 -11 7 -11 15 0 8
-7 15 -15 15 -8 0 -15 7 -15 15 0 8 -7 15 -15 15 -8 0 -15 7 -15 15 0 8 -7 15
-15 15 -8 0 -15 7 -15 15 0 8 -7 15 -15 15 -8 0 -15 7 -15 15 0 8 -7 15 -15
15 -8 0 -15 7 -15 15 0 8 -7 15 -15 15 -8 0 -15 7 -15 15 0 8 -7 15 -15 15 -8
0 -15 5 -15 10 0 6 -7 10 -15 10 -8 0 -15 -5 -15 -11z"/>
</g>
</svg>
