<svg xmlns="http://www.w3.org/2000/svg" xmlns:xlink="http://www.w3.org/1999/xlink"><defs><clipPath id="clip0_248_2190"><rect width="25" height="25" fill="white"/></clipPath><clipPath id="clip0_248_2161"><rect width="25" height="25" fill="white"/></clipPath><clipPath id="clip0_248_2173"><rect width="23" height="23" fill="white"/></clipPath></defs><symbol id="arrow-left" viewBox="0 0 14 9"><g fill="currentColor"><path d="M0.646446 4.85355C0.451184 4.65829 0.451184 4.34171 0.646446 4.14645L3.82843 0.964466C4.02369 0.769204 4.34027 0.769204 4.53553 0.964466C4.7308 1.15973 4.7308 1.47631 4.53553 1.67157L1.70711 4.5L4.53553 7.32843C4.7308 7.52369 4.7308 7.84027 4.53553 8.03553C4.34027 8.2308 4.02369 8.2308 3.82843 8.03553L0.646446 4.85355ZM14 5H1V4H14V5Z" fill="currentColor"/></g></symbol><symbol id="boots" viewBox="0 0 24 24"><g fill="none"><path d="M23.6583 15.6155C24.404 13.2805 23.7904 10.6301 23.1385 8.79354C23.1342 8.72248 23.1123 8.65361 23.0746 8.59327C22.853 7.99671 22.6484 7.50669 22.4737 7.15302C22.7953 7.02497 23.0075 6.71509 23.0106 6.36898V2.8195C23.0106 2.34881 22.6291 1.96729 22.1584 1.96729H11.6889C11.4536 1.96686 11.2625 2.15728 11.2621 2.39265C11.2621 2.40144 11.2624 2.41023 11.2628 2.41896C11.4077 4.97561 11.2202 6.70987 10.6791 7.9328C10.6683 7.94494 10.6583 7.95778 10.6492 7.97115C10.6476 7.9924 10.6476 8.01381 10.6492 8.03506C10.4427 8.48024 10.1633 8.88776 9.82259 9.24095L9.78424 9.26652C9.78424 9.26652 9.78424 9.26652 9.78424 9.29634C9.28468 9.77279 8.70853 10.1617 8.07981 10.4468C6.98439 10.9329 5.86021 11.3512 4.71355 11.6996L4.49624 11.772C0.512129 13.093 -0.00772321 15.4877 0.000798953 16.6893C-0.000266318 16.7064 -0.000266318 16.7234 0.000798953 16.7404V19.7829C0.00143811 19.9309 0.07883 20.068 0.205331 20.1451C1.18176 20.7392 2.23574 21.1951 3.33722 21.5001C3.56375 21.5638 3.79907 21.4318 3.86278 21.2052C3.87476 21.1625 3.88003 21.1182 3.87838 21.074V20.976H4.50476V21.4021C4.50204 21.6132 4.65433 21.7944 4.86269 21.8282C5.23341 21.8878 5.60412 21.9347 5.96631 21.9645C6.08498 21.9745 6.20243 21.9343 6.29015 21.8537C6.37783 21.7724 6.42731 21.658 6.42651 21.5384V21.0015H7.05289V21.6066C7.05289 21.8419 7.24368 22.0327 7.479 22.0327C7.83693 22.0327 8.19486 22.0327 8.57835 21.9816C8.8003 21.9638 8.97107 21.7781 8.97037 21.5555V21.0015H9.59675V21.3765C9.59372 21.6118 9.782 21.8051 10.0173 21.8081C10.042 21.8084 10.0666 21.8066 10.091 21.8026C10.8732 21.6828 11.6442 21.499 12.3963 21.2529L12.4645 21.2231C15.4472 19.5187 17.3391 20.9206 17.4158 20.9802C17.4902 21.038 17.5816 21.0694 17.6758 21.0697H18.2041C18.4395 21.0697 18.6302 20.8789 18.6302 20.6436V19.9235H19.2396V20.6351C19.2396 20.8704 19.4304 21.0612 19.6657 21.0612H21.0378C21.2731 21.0612 21.4639 20.8704 21.4639 20.6351V19.9235H22.0945V20.6351C22.0945 20.8704 22.2853 21.0612 22.5206 21.0612H23.5731C23.8084 21.0612 23.9992 20.8704 23.9992 20.6351V16.0416C24.0034 15.8359 23.8599 15.6566 23.6583 15.6155ZM13.5468 2.82802H13.8962H22.1371V6.3562H13.5468V2.82802ZM8.1906 11.3246L8.19486 11.3502C8.54416 11.6338 8.86651 11.949 9.15786 12.2919C9.08058 12.4204 9.04073 12.568 9.04281 12.718C9.03988 13.1675 9.40191 13.5342 9.85135 13.5371C10.3008 13.5401 10.6676 13.178 10.6705 12.7286C10.6733 12.3051 10.3509 11.9504 9.92912 11.9126C9.6596 11.5452 9.35254 11.2067 9.01298 10.9028C9.39377 10.686 9.75202 10.432 10.0825 10.1443C10.4958 10.532 10.8803 10.9493 11.233 11.3928C11.0848 11.8171 11.3086 12.2813 11.7329 12.4296C12.1572 12.5778 12.6214 12.354 12.7697 11.9297C12.9179 11.5053 12.6941 11.0412 12.2698 10.8929C12.1817 10.8621 12.0891 10.8467 11.9957 10.8474H11.8935C11.5197 10.3768 11.1125 9.93396 10.6748 9.52218C10.8779 9.27211 11.0576 9.00398 11.2117 8.7211C11.8714 9.06449 12.5089 9.44873 13.1207 9.87159C13.1165 10.3258 13.4813 10.6973 13.9354 10.7015C14.3896 10.7057 14.7612 10.3409 14.7654 9.88677C14.7696 9.43259 14.4048 9.06102 13.9506 9.05682C13.8209 9.05559 13.6927 9.0851 13.5766 9.14294C12.9327 8.70704 12.2624 8.31145 11.5696 7.95836C12.0341 6.72265 12.2344 5.08214 12.1406 2.84507H12.6988V6.37324C12.6988 6.84393 13.0803 7.22546 13.551 7.22546H21.5363C21.6471 7.4513 21.8346 7.84331 22.0391 8.35464H21.8644C19.2758 8.37334 17.1925 10.4869 17.2112 13.0755C17.2218 14.5465 17.9224 15.9272 19.1032 16.8044C15.656 17.712 10.4703 18.79 6.10693 18.5088C6.91227 15.2917 5.94927 13.3103 5.32289 12.441C6.2983 12.1211 7.25561 11.7484 8.1906 11.3246ZM4.46641 12.6839C4.92661 13.2251 6.12823 15.0445 5.24619 18.3895C3.71082 18.2688 2.2196 17.8182 0.874321 17.0686C0.859034 16.9712 0.849074 16.873 0.844493 16.7745V16.7447C0.810404 15.8371 1.15129 13.8727 4.46641 12.6839ZM22.9467 20.209V19.4974C22.9467 19.262 22.7559 19.0713 22.5206 19.0713H21.042C20.8067 19.0713 20.6159 19.262 20.6159 19.4974V20.209H20.0918V19.4974C20.0918 19.262 19.901 19.0713 19.6657 19.0713H18.1956C17.9603 19.0713 17.7695 19.262 17.7695 19.4974V20.1919C17.19 19.8297 15.0722 18.7772 12.0682 20.4561C11.5337 20.6325 10.9886 20.7748 10.4362 20.8822V20.5882C10.4362 20.3529 10.2454 20.1621 10.0101 20.1621H8.54C8.30469 20.1621 8.1139 20.3529 8.1139 20.5882V21.172H7.89658V20.5754C7.89658 20.3401 7.70579 20.1493 7.47047 20.1493H5.99188C5.75656 20.1493 5.56577 20.3401 5.56577 20.5754V21.0825L5.34845 21.0527V20.5754C5.34845 20.3401 5.15767 20.1493 4.92235 20.1493H3.44375C3.22702 20.1478 3.04364 20.3091 3.01764 20.5243C2.26136 20.2753 1.53308 19.9482 0.844493 19.5485V18.023C2.70232 19.0073 5.10557 19.3781 7.66222 19.3781C14.4544 19.3781 22.2266 16.7788 23.1427 16.4677L23.147 20.209H22.9467ZM22.7379 15.7135C22.3757 15.8328 21.4852 16.1396 20.2537 16.4677C18.3473 15.5451 17.5497 13.2516 18.4724 11.3451C19.1036 10.041 20.4158 9.20393 21.8644 9.18129C22.0324 9.17895 22.2003 9.18747 22.3672 9.20686L22.3715 9.21964C22.9979 11.0263 23.5603 13.6043 22.7379 15.7135Z" fill="#2D383F"/><path d="M15.1872 3.34375C14.5024 3.34375 13.9473 3.89892 13.9473 4.58372C13.9496 5.26757 14.5034 5.82135 15.1872 5.8237C15.872 5.8237 16.4272 5.26853 16.4272 4.58372C16.4272 3.89892 15.8721 3.34375 15.1872 3.34375ZM15.1872 4.97148C14.9731 4.97148 14.7995 4.7979 14.7995 4.58372C14.7995 4.36955 14.9731 4.19597 15.1872 4.19597C15.4014 4.19597 15.575 4.36955 15.575 4.58372C15.575 4.7979 15.4014 4.97148 15.1872 4.97148Z" fill="#2D383F"/></g></symbol><symbol id="cross" viewBox="0 0 22 22"><g fill="currentColor"><path d="M2 2L11 11M20 20L11 11M11 11L20 2L2 20" stroke="#2D383F" stroke-width="2"/></g></symbol><symbol id="icon-close" viewBox="0 0 20 20"><g fill="none"><path d="M.293 18.291a1 1 0 101.414 1.414L10 11.413l8.292 8.292a1 1 0 101.414-1.414l-8.292-8.292 8.292-8.292A1 1 0 1018.291.293L9.999 8.585 1.707.293A1 1 0 10.293 1.707L8.585 10 .293 18.291z"/></g></symbol><symbol id="logotype" viewBox="0 0 142 42"><g fill="currentColor"><path d="M15.7314 27.2445L19.4995 23.359L23.7857 27.2445H31.1334L19.4524 16.0044L7.86561 27.2445H15.7314Z" fill="currentColor"/><path d="M26.5178 9.20485L20.9599 14.7555L24.6337 18.4559L26.5178 16.6057L36.8328 26.6894C34.4778 32.8414 28.4489 37.2357 21.3367 37.2357C12.1991 37.2357 4.80428 29.9736 4.80428 21C4.85138 12.0264 12.2462 4.76432 21.3838 4.76432C29.4851 4.76432 36.2676 10.5463 37.6336 18.0859L42.6262 23.2665C42.7204 22.5264 42.7675 21.7401 42.7675 21C42.7675 15.4031 40.5538 10.13 36.5031 6.15198C32.4525 2.17401 27.083 0 21.3838 0C15.6375 0 10.3151 2.17401 6.26441 6.15198C2.21374 10.13 0 15.3568 0 21C0 26.6432 2.21374 31.87 6.26441 35.848C10.3151 39.826 15.6846 42 21.3838 42C27.083 42 32.4525 39.826 36.5031 35.848C38.9995 33.3965 40.7893 30.4824 41.7784 27.2907C41.9668 26.7357 42.1081 26.1344 42.2494 25.5793L37.9162 21.0925L26.5178 9.20485Z" fill="currentColor"/><path d="M60.4115 13.4945H63.5561L61.8408 21.9634H67.1453L66.6371 24.4121H58.1881L60.4115 13.4945Z" fill="currentColor"/><path d="M70.1049 13.4945H73.2495L71.026 24.4121H67.8815L70.1049 13.4945Z" fill="currentColor"/><path d="M78.1389 15.8808L77.6466 18.2826H82.554L82.0617 20.6689H77.1701L76.4078 24.4121H73.2632L75.4867 13.4945H84.1898L83.6975 15.8808H78.1389Z" fill="currentColor"/><path d="M88.2809 15.8808L87.9157 17.7212H92.8549L92.3943 20.0295H87.4392L87.0422 22.0258H92.8707L92.3625 24.4121H83.4529L85.6764 13.4945H94.3795L93.8872 15.8808H88.2809Z" fill="currentColor"/><path d="M98.205 15.9431H94.7904L95.2987 13.4945H105.256L104.748 15.9431H101.35L99.6185 24.4121H96.4739L98.205 15.9431Z" fill="currentColor"/><path d="M110.053 24.6305C108.93 24.6305 107.951 24.4277 107.115 24.0222C106.289 23.6167 105.648 23.05 105.193 22.3222C104.748 21.5943 104.526 20.7625 104.526 19.8267C104.526 18.579 104.817 17.456 105.399 16.4578C105.992 15.4596 106.813 14.6798 107.861 14.1183C108.92 13.5569 110.122 13.2761 111.466 13.2761C112.588 13.2761 113.563 13.4789 114.388 13.8844C115.225 14.2899 115.865 14.8566 116.31 15.5844C116.765 16.3123 116.993 17.1441 116.993 18.0799C116.993 19.3276 116.697 20.4506 116.104 21.4488C115.521 22.4469 114.701 23.2268 113.642 23.7882C112.594 24.3497 111.397 24.6305 110.053 24.6305ZM110.323 22.0726C111.021 22.0726 111.636 21.9011 112.165 21.5579C112.694 21.2148 113.102 20.7573 113.388 20.1854C113.674 19.6032 113.817 18.9637 113.817 18.267C113.817 17.5288 113.584 16.9413 113.118 16.5046C112.663 16.0575 112.022 15.834 111.196 15.834C110.497 15.834 109.883 16.0055 109.354 16.3487C108.825 16.6918 108.417 17.1545 108.131 17.7368C107.845 18.3086 107.702 18.9429 107.702 19.6395C107.702 20.3778 107.93 20.9705 108.385 21.4176C108.851 21.8543 109.497 22.0726 110.323 22.0726Z" fill="currentColor"/><path d="M122.896 24.6305C121.933 24.6305 121.102 24.4745 120.403 24.1626C119.704 23.8402 119.169 23.3827 118.799 22.7901C118.428 22.1974 118.243 21.5007 118.243 20.7001C118.243 20.3674 118.285 19.9827 118.37 19.546L119.609 13.4945H122.753L121.53 19.4992C121.467 19.8111 121.435 20.097 121.435 20.357C121.435 21.5007 122.049 22.0726 123.277 22.0726C123.944 22.0726 124.469 21.8751 124.85 21.4799C125.241 21.0744 125.533 20.4142 125.723 19.4992L126.946 13.4945H130.043L128.788 19.6863C128.111 22.9824 126.147 24.6305 122.896 24.6305Z" fill="currentColor"/><path d="M141.416 16.9725C141.416 17.9707 141.146 18.8337 140.606 19.5616C140.066 20.279 139.309 20.8041 138.335 21.1368L140.225 24.4121H136.938L135.286 21.5111H133.698L133.11 24.4121H129.966L132.189 13.4945H136.938C138.357 13.4945 139.458 13.8012 140.241 14.4147C141.025 15.0281 141.416 15.8808 141.416 16.9725ZM138.24 17.2689C138.24 16.8218 138.087 16.489 137.779 16.2707C137.472 16.0419 137.044 15.9275 136.493 15.9275H134.841L134.174 19.1249H136.048C136.747 19.1249 137.287 18.9637 137.668 18.6414C138.049 18.319 138.24 17.8615 138.24 17.2689Z" fill="currentColor"/><path d="M60.2817 34.7063C59.8987 34.7063 59.5507 34.6231 59.2376 34.4567C58.9283 34.2867 58.6852 34.0553 58.5085 33.7623C58.3354 33.4694 58.2488 33.1403 58.2488 32.775C58.2488 32.4097 58.3354 32.0806 58.5085 31.7877C58.6852 31.4947 58.9283 31.2651 59.2376 31.0987C59.5507 30.9287 59.8987 30.8437 60.2817 30.8437C60.6647 30.8437 61.009 30.9269 61.3147 31.0933C61.624 31.2596 61.8671 31.4911 62.0439 31.7877C62.2206 32.0806 62.309 32.4097 62.309 32.775C62.309 33.1403 62.2206 33.4712 62.0439 33.7678C61.8671 34.0607 61.624 34.2904 61.3147 34.4567C61.009 34.6231 60.6647 34.7063 60.2817 34.7063ZM60.2817 34.3482C60.5873 34.3482 60.8635 34.2813 61.1103 34.1475C61.357 34.0101 61.5504 33.822 61.6903 33.5833C61.8303 33.341 61.9002 33.0716 61.9002 32.775C61.9002 32.4784 61.8303 32.2108 61.6903 31.9721C61.5504 31.7298 61.357 31.5417 61.1103 31.4079C60.8635 31.2705 60.5873 31.2018 60.2817 31.2018C59.976 31.2018 59.698 31.2705 59.4475 31.4079C59.2008 31.5417 59.0056 31.7298 58.862 31.9721C58.7221 32.2108 58.6521 32.4784 58.6521 32.775C58.6521 33.0716 58.7221 33.341 58.862 33.5833C59.0056 33.822 59.2008 34.0101 59.4475 34.1475C59.698 34.2813 59.976 34.3482 60.2817 34.3482Z" fill="currentColor"/><path d="M64.6876 31.7985C64.9601 31.7985 65.2068 31.86 65.4278 31.983C65.6488 32.1023 65.8219 32.2723 65.9471 32.4929C66.0723 32.7135 66.1349 32.9649 66.1349 33.247C66.1349 33.5327 66.0723 33.7858 65.9471 34.0065C65.8219 34.2271 65.6488 34.3989 65.4278 34.5218C65.2105 34.6412 64.9638 34.7008 64.6876 34.7008C64.4519 34.7008 64.2383 34.6538 64.0468 34.5598C63.859 34.4622 63.7043 34.3211 63.5828 34.1367V35.7262H63.1906V31.8202H63.5662V32.3844C63.684 32.1963 63.8387 32.0517 64.0302 31.9504C64.2254 31.8492 64.4445 31.7985 64.6876 31.7985ZM64.66 34.3591C64.8625 34.3591 65.0466 34.3139 65.2124 34.2235C65.3781 34.1294 65.507 33.9974 65.5991 33.8274C65.6948 33.6575 65.7427 33.464 65.7427 33.247C65.7427 33.03 65.6948 32.8383 65.5991 32.6719C65.507 32.5019 65.3781 32.3699 65.2124 32.2759C65.0466 32.1819 64.8625 32.1349 64.66 32.1349C64.4537 32.1349 64.2678 32.1819 64.102 32.2759C63.94 32.3699 63.8111 32.5019 63.7154 32.6719C63.6233 32.8383 63.5772 33.03 63.5772 33.247C63.5772 33.464 63.6233 33.6575 63.7154 33.8274C63.8111 33.9974 63.94 34.1294 64.102 34.2235C64.2678 34.3139 64.4537 34.3591 64.66 34.3591Z" fill="currentColor"/><path d="M69.0325 32.162H67.3698V34.6737H66.9776V31.8202H69.0325V32.162Z" fill="currentColor"/><path d="M70.5992 31.7985C70.9785 31.7985 71.2694 31.8925 71.472 32.0806C71.6745 32.2651 71.7758 32.5399 71.7758 32.9052V34.6737H71.4002V34.2289C71.3118 34.3772 71.1811 34.4929 71.008 34.5761C70.8386 34.6593 70.636 34.7008 70.4003 34.7008C70.0762 34.7008 69.8185 34.6249 69.627 34.473C69.4355 34.3211 69.3397 34.1204 69.3397 33.8708C69.3397 33.6285 69.4281 33.4332 69.6049 33.2849C69.7853 33.1367 70.0707 33.0625 70.4611 33.0625H71.3836V32.8889C71.3836 32.643 71.3136 32.4567 71.1737 32.3302C71.0337 32.2 70.8294 32.1349 70.5605 32.1349C70.3764 32.1349 70.1996 32.1656 70.0302 32.2271C69.8608 32.285 69.7153 32.3663 69.5938 32.4712L69.417 32.1837C69.5643 32.0607 69.7411 31.9667 69.9473 31.9016C70.1536 31.8329 70.3709 31.7985 70.5992 31.7985ZM70.4611 34.3971C70.682 34.3971 70.8717 34.3482 71.0301 34.2506C71.1884 34.1493 71.3063 34.0047 71.3836 33.8166V33.35H70.4721C69.975 33.35 69.7264 33.52 69.7264 33.86C69.7264 34.0263 69.7908 34.1584 69.9197 34.256C70.0486 34.35 70.2291 34.3971 70.4611 34.3971Z" fill="currentColor"/><path d="M72.8199 31.8202H73.2121V33.0842H75.0406V31.8202H75.4328V34.6737H75.0406V33.4151H73.2121V34.6737H72.8199V31.8202Z" fill="currentColor"/><path d="M76.5476 31.8202H76.9398V34.0878L78.8787 31.8202H79.2267V34.6737H78.8345V32.4061L76.9011 34.6737H76.5476V31.8202Z" fill="currentColor"/><path d="M81.7056 33.1873C81.9118 33.2343 82.0701 33.3157 82.1806 33.4314C82.2948 33.5471 82.3519 33.6882 82.3519 33.8546C82.3519 34.0209 82.293 34.1692 82.1751 34.2994C82.0609 34.4296 81.9044 34.5309 81.7056 34.6032C81.5067 34.6719 81.2876 34.7063 81.0482 34.7063C80.8383 34.7063 80.632 34.6773 80.4295 34.6195C80.227 34.558 80.0502 34.4694 79.8992 34.3537L80.0318 34.0661C80.1643 34.1638 80.319 34.2397 80.4958 34.294C80.6726 34.3482 80.8512 34.3754 81.0316 34.3754C81.3005 34.3754 81.5196 34.3265 81.689 34.2289C81.8621 34.1276 81.9486 33.992 81.9486 33.822C81.9486 33.6701 81.8786 33.5526 81.7387 33.4694C81.5988 33.3826 81.4073 33.3392 81.1642 33.3392H80.667V33.0571H81.1421C81.3594 33.0571 81.5343 33.0173 81.6669 32.9377C81.7995 32.8546 81.8658 32.7443 81.8658 32.6068C81.8658 32.4549 81.7903 32.3356 81.6393 32.2488C81.492 32.162 81.2986 32.1186 81.0592 32.1186C80.7462 32.1186 80.4369 32.1963 80.1312 32.3519L80.0207 32.0535C80.3669 31.8763 80.726 31.7877 81.0979 31.7877C81.3189 31.7877 81.5177 31.8202 81.6945 31.8853C81.875 31.9468 82.0149 32.0354 82.1143 32.1511C82.2175 32.2669 82.269 32.4007 82.269 32.5526C82.269 32.6972 82.2175 32.8256 82.1143 32.9377C82.0149 33.0499 81.8786 33.133 81.7056 33.1873Z" fill="currentColor"/><path d="M84.2421 31.7985C84.6214 31.7985 84.9123 31.8925 85.1149 32.0806C85.3174 32.2651 85.4187 32.5399 85.4187 32.9052V34.6737H85.0431V34.2289C84.9547 34.3772 84.824 34.4929 84.6509 34.5761C84.4815 34.6593 84.2789 34.7008 84.0432 34.7008C83.7191 34.7008 83.4614 34.6249 83.2699 34.473C83.0784 34.3211 82.9826 34.1204 82.9826 33.8708C82.9826 33.6285 83.071 33.4332 83.2478 33.2849C83.4282 33.1367 83.7136 33.0625 84.104 33.0625H85.0265V32.8889C85.0265 32.643 84.9565 32.4567 84.8166 32.3302C84.6766 32.2 84.4723 32.1349 84.2034 32.1349C84.0193 32.1349 83.8425 32.1656 83.6731 32.2271C83.5037 32.285 83.3582 32.3663 83.2367 32.4712L83.0599 32.1837C83.2073 32.0607 83.384 31.9667 83.5902 31.9016C83.7965 31.8329 84.0138 31.7985 84.2421 31.7985ZM84.104 34.3971C84.325 34.3971 84.5146 34.3482 84.673 34.2506C84.8313 34.1493 84.9492 34.0047 85.0265 33.8166V33.35H84.115C83.6179 33.35 83.3693 33.52 83.3693 33.86C83.3693 34.0263 83.4337 34.1584 83.5626 34.256C83.6915 34.35 83.872 34.3971 84.104 34.3971Z" fill="currentColor"/><path d="M89.49 34.3374V35.3898H89.1199V34.6737H86.4628V31.8202H86.855V34.3374H88.6282V31.8202H89.0204V34.3374H89.49Z" fill="currentColor"/><path d="M90.239 31.8202H90.6312V34.0878L92.5702 31.8202H92.9182V34.6737H92.526V32.4061L90.5926 34.6737H90.239V31.8202Z" fill="currentColor"/><path d="M96.2739 31.8202V34.6737H95.9148V33.7298H94.8929L94.219 34.6737H93.7936L94.5173 33.6755C94.2926 33.6141 94.1195 33.5092 93.998 33.3609C93.8765 33.2126 93.8157 33.0245 93.8157 32.7967C93.8157 32.4784 93.9262 32.2361 94.1472 32.0698C94.3681 31.9034 94.6701 31.8202 95.0531 31.8202H96.2739ZM94.2134 32.8076C94.2134 33.2307 94.4878 33.4423 95.0365 33.4423H95.9148V32.162H95.0641C94.497 32.162 94.2134 32.3772 94.2134 32.8076Z" fill="currentColor"/><path d="M101.445 31.8202V34.6737H101.053V32.162H99.2302V34.6737H98.838V31.8202H101.445Z" fill="currentColor"/><path d="M103.759 34.7008C103.479 34.7008 103.227 34.6394 103.002 34.5164C102.778 34.3898 102.601 34.2162 102.472 33.9956C102.343 33.775 102.279 33.5254 102.279 33.247C102.279 32.9685 102.343 32.7189 102.472 32.4983C102.601 32.2777 102.778 32.1059 103.002 31.983C103.227 31.86 103.479 31.7985 103.759 31.7985C104.039 31.7985 104.291 31.86 104.516 31.983C104.74 32.1059 104.915 32.2777 105.041 32.4983C105.169 32.7189 105.234 32.9685 105.234 33.247C105.234 33.5254 105.169 33.775 105.041 33.9956C104.915 34.2162 104.74 34.3898 104.516 34.5164C104.291 34.6394 104.039 34.7008 103.759 34.7008ZM103.759 34.3591C103.965 34.3591 104.149 34.3139 104.311 34.2235C104.477 34.1294 104.606 33.9974 104.698 33.8274C104.79 33.6575 104.836 33.464 104.836 33.247C104.836 33.03 104.79 32.8365 104.698 32.6665C104.606 32.4965 104.477 32.3663 104.311 32.2759C104.149 32.1819 103.965 32.1349 103.759 32.1349C103.553 32.1349 103.367 32.1819 103.201 32.2759C103.039 32.3663 102.91 32.4965 102.814 32.6665C102.722 32.8365 102.676 33.03 102.676 33.247C102.676 33.464 102.722 33.6575 102.814 33.8274C102.91 33.9974 103.039 34.1294 103.201 34.2235C103.367 34.3139 103.553 34.3591 103.759 34.3591Z" fill="currentColor"/><path d="M107.787 34.6737L106.865 33.4802L105.936 34.6737H105.495L106.644 33.209L105.55 31.8202H105.992L106.865 32.9377L107.737 31.8202H108.168L107.074 33.209L108.234 34.6737H107.787Z" fill="currentColor"/><path d="M109.974 34.7008C109.694 34.7008 109.441 34.6394 109.217 34.5164C108.992 34.3898 108.815 34.2162 108.686 33.9956C108.558 33.775 108.493 33.5254 108.493 33.247C108.493 32.9685 108.558 32.7189 108.686 32.4983C108.815 32.2777 108.992 32.1059 109.217 31.983C109.441 31.86 109.694 31.7985 109.974 31.7985C110.253 31.7985 110.506 31.86 110.73 31.983C110.955 32.1059 111.13 32.2777 111.255 32.4983C111.384 32.7189 111.448 32.9685 111.448 33.247C111.448 33.5254 111.384 33.775 111.255 33.9956C111.13 34.2162 110.955 34.3898 110.73 34.5164C110.506 34.6394 110.253 34.7008 109.974 34.7008ZM109.974 34.3591C110.18 34.3591 110.364 34.3139 110.526 34.2235C110.692 34.1294 110.821 33.9974 110.913 33.8274C111.005 33.6575 111.051 33.464 111.051 33.247C111.051 33.03 111.005 32.8365 110.913 32.6665C110.821 32.4965 110.692 32.3663 110.526 32.2759C110.364 32.1819 110.18 32.1349 109.974 32.1349C109.767 32.1349 109.581 32.1819 109.416 32.2759C109.254 32.3663 109.125 32.4965 109.029 32.6665C108.937 32.8365 108.891 33.03 108.891 33.247C108.891 33.464 108.937 33.6575 109.029 33.8274C109.125 33.9974 109.254 34.1294 109.416 34.2235C109.581 34.3139 109.767 34.3591 109.974 34.3591Z" fill="currentColor"/><path d="M115.104 34.3374V35.3627H114.734V34.6737H112.132V35.3627H111.762V34.3374H111.928C112.123 34.3265 112.256 34.1855 112.326 33.9142C112.396 33.643 112.444 33.2632 112.469 32.775L112.508 31.8202H114.651V34.3374H115.104ZM112.828 32.7967C112.81 33.2018 112.775 33.5363 112.723 33.8003C112.672 34.0607 112.58 34.2397 112.447 34.3374H114.259V32.162H112.862L112.828 32.7967Z" fill="currentColor"/><path d="M117.067 34.7008C116.788 34.7008 116.535 34.6394 116.311 34.5164C116.086 34.3898 115.909 34.2162 115.78 33.9956C115.651 33.775 115.587 33.5254 115.587 33.247C115.587 32.9685 115.651 32.7189 115.78 32.4983C115.909 32.2777 116.086 32.1059 116.311 31.983C116.535 31.86 116.788 31.7985 117.067 31.7985C117.347 31.7985 117.6 31.86 117.824 31.983C118.049 32.1059 118.224 32.2777 118.349 32.4983C118.478 32.7189 118.542 32.9685 118.542 33.247C118.542 33.5254 118.478 33.775 118.349 33.9956C118.224 34.2162 118.049 34.3898 117.824 34.5164C117.6 34.6394 117.347 34.7008 117.067 34.7008ZM117.067 34.3591C117.274 34.3591 117.458 34.3139 117.62 34.2235C117.786 34.1294 117.914 33.9974 118.006 33.8274C118.099 33.6575 118.145 33.464 118.145 33.247C118.145 33.03 118.099 32.8365 118.006 32.6665C117.914 32.4965 117.786 32.3663 117.62 32.2759C117.458 32.1819 117.274 32.1349 117.067 32.1349C116.861 32.1349 116.675 32.1819 116.509 32.2759C116.347 32.3663 116.219 32.4965 116.123 32.6665C116.031 32.8365 115.985 33.03 115.985 33.247C115.985 33.464 116.031 33.6575 116.123 33.8274C116.219 33.9974 116.347 34.1294 116.509 34.2235C116.675 34.3139 116.861 34.3591 117.067 34.3591Z" fill="currentColor"/><path d="M121.231 33.1981C121.625 33.2886 121.822 33.5218 121.822 33.898C121.822 34.1475 121.728 34.3392 121.54 34.473C121.353 34.6068 121.073 34.6737 120.701 34.6737H119.381V31.8202H120.662C120.994 31.8202 121.253 31.8835 121.441 32.0101C121.629 32.1367 121.723 32.3175 121.723 32.5526C121.723 32.7081 121.679 32.8419 121.59 32.954C121.505 33.0625 121.386 33.1439 121.231 33.1981ZM119.762 33.0896H120.635C120.859 33.0896 121.03 33.0481 121.148 32.9649C121.27 32.8817 121.331 32.7605 121.331 32.6014C121.331 32.4423 121.27 32.3229 121.148 32.2434C121.03 32.1638 120.859 32.124 120.635 32.124H119.762V33.0896ZM120.684 34.3699C120.935 34.3699 121.122 34.3301 121.248 34.2506C121.373 34.171 121.436 34.0462 121.436 33.8763C121.436 33.7063 121.378 33.5815 121.264 33.5019C121.15 33.4188 120.97 33.3772 120.723 33.3772H119.762V34.3699H120.684Z" fill="currentColor"/><path d="M126.038 33.1981C126.432 33.2886 126.629 33.5218 126.629 33.898C126.629 34.1475 126.535 34.3392 126.347 34.473C126.159 34.6068 125.879 34.6737 125.507 34.6737H124.187V31.8202H125.469C125.8 31.8202 126.06 31.8835 126.248 32.0101C126.435 32.1367 126.529 32.3175 126.529 32.5526C126.529 32.7081 126.485 32.8419 126.397 32.954C126.312 33.0625 126.192 33.1439 126.038 33.1981ZM124.568 33.0896H125.441C125.666 33.0896 125.837 33.0481 125.955 32.9649C126.076 32.8817 126.137 32.7605 126.137 32.6014C126.137 32.4423 126.076 32.3229 125.955 32.2434C125.837 32.1638 125.666 32.124 125.441 32.124H124.568V33.0896ZM125.491 34.3699C125.741 34.3699 125.929 34.3301 126.054 34.2506C126.179 34.171 126.242 34.0462 126.242 33.8763C126.242 33.7063 126.185 33.5815 126.071 33.5019C125.957 33.4188 125.776 33.3772 125.529 33.3772H124.568V34.3699H125.491Z" fill="currentColor"/><path d="M131.049 32.162H129.386V34.6737H128.994V31.8202H131.049V32.162Z" fill="currentColor"/><path d="M132.679 34.7008C132.399 34.7008 132.147 34.6394 131.923 34.5164C131.698 34.3898 131.521 34.2162 131.392 33.9956C131.263 33.775 131.199 33.5254 131.199 33.247C131.199 32.9685 131.263 32.7189 131.392 32.4983C131.521 32.2777 131.698 32.1059 131.923 31.983C132.147 31.86 132.399 31.7985 132.679 31.7985C132.959 31.7985 133.211 31.86 133.436 31.983C133.661 32.1059 133.836 32.2777 133.961 32.4983C134.09 32.7189 134.154 32.9685 134.154 33.247C134.154 33.5254 134.09 33.775 133.961 33.9956C133.836 34.2162 133.661 34.3898 133.436 34.5164C133.211 34.6394 132.959 34.7008 132.679 34.7008ZM132.679 34.3591C132.886 34.3591 133.07 34.3139 133.232 34.2235C133.397 34.1294 133.526 33.9974 133.618 33.8274C133.71 33.6575 133.757 33.464 133.757 33.247C133.757 33.03 133.71 32.8365 133.618 32.6665C133.526 32.4965 133.397 32.3663 133.232 32.2759C133.07 32.1819 132.886 32.1349 132.679 32.1349C132.473 32.1349 132.287 32.1819 132.121 32.2759C131.959 32.3663 131.83 32.4965 131.735 32.6665C131.643 32.8365 131.597 33.03 131.597 33.247C131.597 33.464 131.643 33.6575 131.735 33.8274C131.83 33.9974 131.959 34.1294 132.121 34.2235C132.287 34.3139 132.473 34.3591 132.679 34.3591Z" fill="currentColor"/><path d="M136.49 31.7985C136.762 31.7985 137.009 31.86 137.23 31.983C137.451 32.1023 137.624 32.2723 137.749 32.4929C137.874 32.7135 137.937 32.9649 137.937 33.247C137.937 33.5327 137.874 33.7858 137.749 34.0065C137.624 34.2271 137.451 34.3989 137.23 34.5218C137.012 34.6412 136.766 34.7008 136.49 34.7008C136.254 34.7008 136.04 34.6538 135.849 34.5598C135.661 34.4622 135.506 34.3211 135.385 34.1367V35.7262H134.992V31.8202H135.368V32.3844C135.486 32.1963 135.641 32.0517 135.832 31.9504C136.027 31.8492 136.246 31.7985 136.49 31.7985ZM136.462 34.3591C136.664 34.3591 136.849 34.3139 137.014 34.2235C137.18 34.1294 137.309 33.9974 137.401 33.8274C137.497 33.6575 137.545 33.464 137.545 33.247C137.545 33.03 137.497 32.8383 137.401 32.6719C137.309 32.5019 137.18 32.3699 137.014 32.2759C136.849 32.1819 136.664 32.1349 136.462 32.1349C136.256 32.1349 136.07 32.1819 135.904 32.2759C135.742 32.3699 135.613 32.5019 135.517 32.6719C135.425 32.8383 135.379 33.03 135.379 33.247C135.379 33.464 135.425 33.6575 135.517 33.8274C135.613 33.9974 135.742 34.1294 135.904 34.2235C136.07 34.3139 136.256 34.3591 136.462 34.3591Z" fill="currentColor"/><path d="M140 32.8293C140.365 32.8329 140.643 32.9124 140.834 33.0679C141.026 33.2235 141.122 33.4477 141.122 33.7406C141.122 34.0444 141.019 34.2777 140.812 34.4404C140.606 34.6032 140.311 34.6828 139.928 34.6791L138.779 34.6737V31.8202H139.172V32.8184L140 32.8293ZM141.608 31.8202H142V34.6737H141.608V31.8202ZM139.906 34.3862C140.175 34.3898 140.378 34.3374 140.514 34.2289C140.654 34.1168 140.724 33.954 140.724 33.7406C140.724 33.5309 140.656 33.3754 140.52 33.2741C140.383 33.1728 140.179 33.1204 139.906 33.1168L139.172 33.1059V34.3754L139.906 34.3862Z" fill="currentColor"/></g></symbol><symbol id="map" viewBox="0 0 25 25"><g fill="none"><g clip-path="url(#clip0_248_2190)"><path d="M24.1704 22.2803V6.70123C24.1823 6.44571 23.9848 6.22897 23.7293 6.2171C23.6748 6.21456 23.6204 6.22168 23.5684 6.23812V6.26127L21.4844 6.91426C21.7026 6.33016 21.8321 5.71665 21.8688 5.09423C21.8688 2.28077 19.588 0 16.7745 0C13.9611 0 11.6803 2.28077 11.6803 5.09423C11.7128 5.68754 11.833 6.27279 12.0369 6.8309L8.59135 5.59902C8.55135 5.5941 8.51094 5.5941 8.47094 5.59902H8.43389C8.37837 5.60001 8.32344 5.61101 8.2718 5.63144L1.12598 8.41011C0.961171 8.47281 0.846262 8.62361 0.82959 8.79913V16.246V24.3967C0.830342 24.6525 1.03828 24.8592 1.29409 24.8585C1.35065 24.8583 1.40669 24.8478 1.45942 24.8274L8.44315 22.1229L16.4087 24.9756C16.5048 25.0081 16.6089 25.0081 16.7051 24.9756L23.8463 22.7434C24.0469 22.6806 24.18 22.4904 24.1704 22.2803ZM16.7745 0.926224C19.0765 0.926224 20.9425 2.79228 20.9425 5.09423C20.9425 6.905 18.2241 11.9066 16.7745 14.3565C15.325 11.8881 12.6065 6.88184 12.6065 5.09423C12.6065 2.79228 14.4726 0.926224 16.7745 0.926224ZM23.2581 21.9608L17.0246 23.9105V20.3769C17.0246 20.1212 16.8173 19.9138 16.5615 19.9138C16.3057 19.9138 16.0984 20.1212 16.0984 20.3769V23.8781L8.90163 21.3032V18.3392C8.90163 18.0835 8.69427 17.8761 8.43852 17.8761C8.18277 17.8761 7.97541 18.0835 7.97541 18.3392V21.3032L1.75581 23.7252V16.5655L4.04359 15.6393C4.2884 15.5652 4.42675 15.3067 4.35266 15.0618C4.27856 14.817 4.02003 14.6787 3.77521 14.7528C3.74963 14.7605 3.72473 14.7705 3.70083 14.7825L1.75576 15.5652V9.11868L7.97535 6.71049V8.09983C7.97535 8.35558 8.18271 8.56294 8.43846 8.56294C8.69421 8.56294 8.90157 8.35558 8.90157 8.09983V6.69197L12.4536 7.96553C13.5928 10.5687 14.9032 13.0936 16.3762 15.5235C16.5088 15.7422 16.7936 15.8119 17.0123 15.6793C17.076 15.6407 17.1295 15.5872 17.1681 15.5235C18.6339 13.1079 19.9396 10.5985 21.0768 8.01184L23.2442 7.33106L23.258 14.9215L20.9101 15.4911C20.6543 15.5218 20.4718 15.754 20.5025 16.0098C20.5332 16.2655 20.7655 16.448 21.0212 16.4173C21.0581 16.4218 21.0954 16.4218 21.1324 16.4173L23.258 15.8986V21.9608H23.2581Z" fill="#2D383F"/><path d="M16.7556 2.40332C15.2696 2.40332 14.0649 3.60799 14.0649 5.094C14.0649 6.58001 15.2696 7.78468 16.7556 7.78468C18.2406 7.78213 19.4438 6.57897 19.4463 5.094C19.4463 3.60799 18.2416 2.40332 16.7556 2.40332ZM16.7556 6.85846C15.7895 6.84584 15.0121 6.06028 15.0097 5.094H14.9912C14.9912 4.1195 15.7811 3.32954 16.7556 3.32954C17.7301 3.32954 18.5201 4.1195 18.5201 5.094C18.5201 6.0685 17.7301 6.85846 16.7556 6.85846Z" fill="#2D383F"/><path d="M10.6981 13.9672V13.9811L8.45661 13.0132C8.34251 12.9656 8.21411 12.9656 8.10001 13.0132L6.20589 13.7774C5.96802 13.8733 5.85294 14.1439 5.94886 14.3817C6.04478 14.6196 6.31536 14.7347 6.55322 14.6387L8.26673 13.9487L10.3276 14.8194C10.3861 14.8443 10.4492 14.8569 10.5128 14.8564C10.7686 14.8585 10.9776 14.6529 10.9797 14.3971C10.9812 14.2101 10.8701 14.0405 10.6981 13.9672Z" fill="#2D383F"/><path d="M18.27 16.6161C18.201 16.393 17.9766 16.2562 17.7467 16.2969L17.7513 16.2599L16.6028 16.5377L14.6578 15.6949C14.4224 15.5926 14.1487 15.7004 14.0465 15.9357C13.9442 16.171 14.052 16.4447 14.2873 16.547L16.3713 17.4732C16.4298 17.4982 16.4929 17.5108 16.5565 17.5103H16.6677L17.9644 17.1954C18.2087 17.1198 18.3455 16.8604 18.27 16.6161Z" fill="#2D383F"/></g></g></symbol><symbol id="menu" viewBox="0 0 26 20"><g fill="currentColor"><path d="M0 0.54541H26V2.71534H0V0.54541Z" fill="currentColor"/><path d="M0 17.2846H26V19.4545H0V17.2846Z" fill="currentColor"/><path d="M0 8.91499H16.64V11.0849H0V8.91499Z" fill="currentColor"/></g></symbol><symbol id="mountain" viewBox="0 0 25 25"><g fill="none"><g clip-path="url(#clip0_248_2161)"><path d="M23.4153 24.1879L19.3747 14.7901L15.5583 5.9074C15.4551 5.665 15.1749 5.55224 14.9325 5.65546C14.8192 5.70376 14.7289 5.79404 14.6806 5.9074L11.2744 13.8121L9.93871 16.9177L7.00963 10.1579C6.90634 9.91551 6.62614 9.80274 6.3838 9.90596C6.27044 9.95427 6.18016 10.0445 6.13186 10.1579L3.37928 16.517L0.0399368 24.1831C-0.0654315 24.4246 0.0448861 24.7058 0.286333 24.8112C0.347037 24.8377 0.412572 24.8513 0.478822 24.851H22.9765C23.2399 24.8508 23.4533 24.6371 23.4531 24.3736C23.4531 24.3098 23.4402 24.2467 23.4153 24.1879ZM15.1147 7.29561L18.2107 14.4943H17.1231L15.1576 12.3237C14.9804 12.1287 14.6787 12.1143 14.4837 12.2916C14.4531 12.3194 14.4263 12.351 14.4039 12.3857L13.6692 13.5211H12.4384L15.1147 7.29561ZM6.57074 11.5318L9.018 17.1896H7.68226C7.52007 17.1899 7.36914 17.2726 7.28154 17.4091L6.80449 18.1676L5.57371 16.4311C5.48474 16.3028 5.33864 16.2262 5.18253 16.226H4.54805L6.57074 11.5318ZM1.22779 23.8969L4.13302 17.1801H4.93446L6.42285 19.3029C6.51182 19.4312 6.65792 19.5078 6.81403 19.5081C6.97283 19.5046 7.11947 19.4223 7.20522 19.2886L7.93987 18.1532H9.42826L11.9137 23.8778L1.22779 23.8969ZM12.9584 23.8969L10.4587 18.1246L12.0282 14.4752H13.9364C14.0986 14.4749 14.2495 14.3923 14.3371 14.2558L14.8666 13.44L16.5554 15.3053C16.6455 15.4052 16.7738 15.4624 16.9084 15.4627H18.6162L22.2466 23.9112L12.9584 23.8969Z" fill="#2D383F"/><path d="M7.61096 2.08189C7.16093 0.922602 5.85626 0.347698 4.69703 0.797794C3.83387 1.13286 3.26385 1.96221 3.26028 2.8881C3.25557 2.97075 3.25557 3.05352 3.26028 3.13617C2.13241 3.65997 1.64278 4.99893 2.16658 6.12679C2.52932 6.90778 3.30572 7.41351 4.16667 7.42961L4.19052 7.44869H7.52987C9.01188 7.47112 10.2314 6.28786 10.2538 4.80584C10.2762 3.32383 9.09298 2.10431 7.61096 2.08189ZM7.55849 6.50891H4.21914C3.50512 6.58267 2.86653 6.0637 2.79277 5.34968C2.719 4.63565 3.23797 3.99706 3.952 3.9233C4.21026 3.87124 4.37747 3.61972 4.32541 3.3614C4.32141 3.34166 4.31622 3.32216 4.30978 3.30314C4.26321 3.16968 4.23906 3.02943 4.23823 2.8881C4.23417 2.17146 4.81176 1.58725 5.52841 1.58314C6.16234 1.5795 6.70606 2.03448 6.81429 2.65912C6.85812 2.90993 7.09122 3.08208 7.34382 3.0503C7.41531 3.04559 7.48699 3.04559 7.55849 3.0503C8.51354 3.0503 9.28779 3.82455 9.28779 4.7796C9.28779 5.73466 8.51354 6.50891 7.55849 6.50891Z" fill="#2D383F"/><path d="M23.6966 2.63997C23.7013 2.55733 23.7013 2.47456 23.6966 2.39191C23.6917 1.14836 22.6797 0.144172 21.4362 0.148943C20.517 0.152521 19.6936 0.714604 19.3539 1.56727C17.8794 1.59816 16.7046 2.81392 16.7269 4.29057C16.7493 5.77258 17.9688 6.95584 19.4508 6.93342H22.7902C24.0335 6.91016 25.0226 5.88343 24.9994 4.64006C24.9833 3.77911 24.4776 3.00271 23.6966 2.63997ZM24.0559 4.94758C23.9296 5.54008 23.4102 5.96632 22.8045 5.97455H19.4651C18.5101 5.97455 17.7358 5.2003 17.7358 4.24525C17.7358 3.29019 18.5101 2.51594 19.4651 2.51594C19.5366 2.51123 19.6083 2.51123 19.6798 2.51594C19.9212 2.54099 20.1429 2.38088 20.195 2.14384C20.3146 1.43727 20.9843 0.961417 21.6909 1.08098C22.3975 1.20054 22.8734 1.87026 22.7538 2.57688C22.7416 2.64862 22.7235 2.71922 22.6995 2.78792C22.6153 3.03754 22.7494 3.3082 22.9991 3.39246C23.0181 3.3989 23.0376 3.40415 23.0573 3.40808C23.7582 3.5574 24.2053 4.24668 24.0559 4.94758Z" fill="#2D383F"/></g></g></symbol><symbol id="odnoklassniki" viewBox="0 0 9 16"><g fill="currentColor"><path d="M4.5 2.42035C5.41587 2.42035 6.1607 3.18736 6.1607 4.1305C6.1607 5.0708 5.41587 5.83781 4.5 5.83781C3.58413 5.83781 2.8393 5.0708 2.8393 4.1305C2.8393 3.18736 3.58413 2.42035 4.5 2.42035ZM4.5 8.25816C6.71243 8.25816 8.51106 6.40597 8.51106 4.1305C8.51106 1.85219 6.71243 0 4.5 0C2.28757 0 0.491701 1.85219 0.491701 4.1305C0.491701 6.40597 2.28757 8.25816 4.5 8.25816ZM6.12208 11.6273C6.93863 11.4342 7.72485 11.1018 8.45037 10.6331C8.99934 10.278 9.16486 9.53083 8.82003 8.96551C8.47244 8.39735 7.74967 8.22691 7.19795 8.58485C5.55656 9.6473 3.44344 9.6473 1.79929 8.58485C1.25033 8.22691 0.524805 8.39735 0.179975 8.96551C-0.164855 9.53083 0.000663014 10.278 0.549632 10.6331C1.27515 11.1018 2.06136 11.4342 2.87792 11.6273L0.63515 13.934C0.177216 14.4056 0.177216 15.1726 0.63515 15.6442C0.866875 15.88 1.16481 15.9993 1.4655 15.9993C1.76619 15.9993 2.06688 15.88 2.29861 15.6442L4.5 13.3772L6.70415 15.6442C7.16208 16.1186 7.90416 16.1186 8.36485 15.6442C8.82278 15.1726 8.82278 14.4056 8.36485 13.934L6.12208 11.6273Z" fill="currentColor"/></g></symbol><symbol id="reddit" viewBox="0 0 14 15"><g fill="currentColor"><path d="M8.36171 0C7.91277 0 7.49149 0.244007 7.22128 0.59589C6.95106 0.947774 6.80213 1.37671 6.69362 1.82877C6.52128 2.55565 6.46808 3.36216 6.45532 4.08904C5.19361 4.17894 4.05105 4.57962 3.10211 5.19863C2.717 4.85188 2.25317 4.65925 1.80849 4.66438C1.3021 4.66952 0.821252 4.90325 0.463803 5.38356C-0.219178 6.30051 -0.140455 7.80051 0.651038 8.69178C0.602102 8.96661 0.565931 9.24914 0.565931 9.53425C0.565931 12.5548 3.44679 15 7 15C10.5532 15 13.4341 12.5522 13.4341 9.53425C13.4341 9.24914 13.3979 8.96661 13.349 8.69178C14.1405 7.80051 14.2192 6.30051 13.5362 5.38356C13.1788 4.90325 12.6979 4.66952 12.1915 4.66438C11.7468 4.65925 11.283 4.85188 10.8979 5.19863C9.9532 4.58219 8.81703 4.18151 7.5617 4.08904C7.57873 3.41866 7.62341 2.7226 7.74894 2.19863C7.82766 1.86986 7.92128 1.63099 8.02128 1.5C8.12128 1.36901 8.19362 1.31507 8.36171 1.31507C8.72554 1.31507 8.77235 1.44092 8.9915 1.74658C9.10214 1.90068 9.2298 2.09332 9.43405 2.28082C9.63831 2.46832 9.94044 2.63014 10.2681 2.63014V1.31507C10.1766 1.31507 10.1596 1.3125 10.0979 1.25342C10.0362 1.19435 9.95108 1.05822 9.82554 0.883562C9.57448 0.531678 9.08724 0 8.36171 0ZM11.9021 0.123288C11.0553 0.123288 10.3702 0.950343 10.3702 1.9726C10.3702 2.99486 11.0553 3.82192 11.9021 3.82192C12.749 3.82192 13.4341 2.99486 13.4341 1.9726C13.4341 0.950343 12.749 0.123288 11.9021 0.123288ZM11.9021 0.780822C12.4468 0.780822 12.8894 1.31507 12.8894 1.9726C12.8894 2.63014 12.4468 3.16438 11.9021 3.16438C11.3575 3.16438 10.9149 2.63014 10.9149 1.9726C10.9149 1.31507 11.3575 0.780822 11.9021 0.780822ZM7 5.11644C10.0149 5.11644 12.566 7.14298 12.566 9.53425C12.566 11.9281 10.0149 13.9521 7 13.9521C3.98509 13.9521 1.43402 11.9281 1.43402 9.53425C1.43402 7.14298 3.98509 5.11644 7 5.11644ZM1.82551 5.71233C1.97658 5.7149 2.13402 5.75599 2.28509 5.83562C1.73828 6.33647 1.30423 6.91182 1.00849 7.56164C0.80423 7.05308 0.85955 6.41866 1.11061 6.08219C1.29359 5.83562 1.54679 5.70976 1.82551 5.71233ZM12.1745 5.71233C12.4532 5.70976 12.7064 5.83562 12.8894 6.08219C13.1405 6.41866 13.1958 7.05308 12.9915 7.56164C12.6958 6.91182 12.2617 6.33647 11.7149 5.83562C11.866 5.75599 12.0234 5.7149 12.1745 5.71233ZM4.82127 7.35616C4.27658 7.35616 3.83403 7.89041 3.83403 8.54795C3.83403 9.20548 4.27658 9.73973 4.82127 9.73973C5.36595 9.73973 5.80851 9.20548 5.80851 8.54795C5.80851 7.89041 5.36595 7.35616 4.82127 7.35616ZM9.17873 7.35616C8.63405 7.35616 8.19149 7.89041 8.19149 8.54795C8.19149 9.20548 8.63405 9.73973 9.17873 9.73973C9.72342 9.73973 10.166 9.20548 10.166 8.54795C10.166 7.89041 9.72342 7.35616 9.17873 7.35616ZM4.29361 11.4041C4.64042 12.2697 5.71276 13.1096 7 13.1096C8.28724 13.1096 9.37661 12.2697 9.72342 11.4041C9.09363 11.8947 8.10001 12.226 7 12.226C5.9 12.226 4.9234 11.8947 4.29361 11.4041Z" fill="currentColor"/></g></symbol><symbol id="right-tours" viewBox="0 0 9 14"><g fill="none"><path d="M1 13L7 7L0.999999 1" stroke="currentColor" stroke-width="2"/></g></symbol><symbol id="tree" viewBox="0 0 23 23"><g fill="none"><g clip-path="url(#clip0_248_2173)"><path d="M22.6246 16.6365L18.1102 11.472H20.2913C20.546 11.4714 20.7519 11.2644 20.7514 11.0098C20.7511 10.9084 20.7175 10.8099 20.6556 10.7296L17.0312 5.96623H18.8757C19.1304 5.96589 19.3365 5.75919 19.3363 5.50454C19.3361 5.39271 19.2953 5.28475 19.2215 5.20077L14.7856 0.156126C14.6172 -0.0348923 14.3257 -0.0531642 14.1347 0.115317C14.1202 0.128056 14.1066 0.141716 14.0939 0.156126L9.65332 5.19616C9.4827 5.38522 9.49763 5.67682 9.68663 5.84744C9.77229 5.92473 9.88376 5.9671 9.99916 5.96623H11.8667L10.7508 7.42337L7.76273 4.02492C7.5943 3.8339 7.30288 3.81563 7.11186 3.98411C7.09739 3.99685 7.08379 4.01051 7.07105 4.02492L3.27604 8.33639C3.10796 8.52769 3.12681 8.81906 3.31811 8.98714C3.40209 9.06092 3.51005 9.10167 3.62188 9.10184H5.08362L2.04946 13.0721C1.89919 13.2777 1.94398 13.5662 2.14958 13.7165C2.22636 13.7726 2.31864 13.8036 2.41374 13.8053H4.11988L0.370984 18.1167C0.205442 18.3102 0.228094 18.6013 0.421649 18.7669C0.503959 18.8373 0.608518 18.8765 0.716823 18.8776H5.8168V22.1054C5.8168 22.5994 6.21734 23 6.71138 23H8.11779C8.61182 23.0025 9.01444 22.6041 9.01697 22.11C9.01697 22.1085 9.01697 22.107 9.01697 22.1054V18.8776H12.8443V22.1054C12.8443 22.5994 13.2448 23 13.7388 23H15.1453C15.6393 23 16.0398 22.5994 16.0398 22.1054V17.402H22.2788C22.5334 17.4017 22.7396 17.195 22.7393 16.9403C22.7391 16.8285 22.6984 16.7205 22.6246 16.6365ZM8.09473 22.0777L6.73904 22.1054L6.71138 18.8776H8.09473V22.0777ZM12.8443 17.9553H1.73129L5.50324 13.6531C5.67397 13.4642 5.65916 13.1726 5.47021 13.0018C5.38214 12.9223 5.2668 12.8797 5.14818 12.883H3.34981L6.38398 8.91279C6.53932 8.71099 6.50168 8.42146 6.29988 8.26612C6.21953 8.20428 6.12109 8.17061 6.0197 8.17038H4.63634L7.40306 5.02094L10.1698 8.16116L8.22385 10.7342C8.06851 10.936 8.10615 11.2255 8.30795 11.3809C8.3883 11.4427 8.48674 11.4764 8.58813 11.4766H10.7738L6.25948 16.6411C6.0914 16.8325 6.11025 17.1238 6.30156 17.2919C6.38554 17.3657 6.4935 17.4064 6.60532 17.4066H12.8443V17.9553ZM15.1176 22.0685L13.7665 22.1054L13.7388 17.402H15.1222L15.1176 22.0685ZM15.1453 16.4798H7.61978L12.1341 11.3152C12.3022 11.1239 12.2834 10.8325 12.0921 10.6645C12.0081 10.5907 11.9001 10.5499 11.7883 10.5498H9.52421L13.167 5.78178C13.3199 5.57808 13.2786 5.28902 13.0749 5.13622C12.9963 5.07731 12.901 5.04497 12.8028 5.04399H11.0367L14.4582 1.16137L17.8612 5.04399H16.0813C15.8267 5.04463 15.6207 5.25155 15.6213 5.50621C15.6215 5.6076 15.6552 5.70605 15.717 5.7864L19.3368 10.5498H17.0912C16.8365 10.5501 16.6303 10.7568 16.6306 11.0115C16.6307 11.1233 16.6716 11.2312 16.7453 11.3152L21.2597 16.4798H15.1453Z" fill="#2D383F"/></g></g></symbol><symbol id="vk" viewBox="0 0 16 9"><g fill="currentColor"><path d="M15.8574 8.02743C15.8144 7.95645 15.5484 7.38659 14.2683 6.21531C12.9282 4.98883 13.1082 5.18799 14.7223 3.06728C15.7054 1.77572 16.0984 0.986988 15.9754 0.649804C15.8584 0.328395 15.1353 0.413184 15.1353 0.413184L12.7312 0.426986C12.7312 0.426986 12.5531 0.403324 12.4201 0.481212C12.2911 0.558114 12.2081 0.735579 12.2081 0.735579C12.2081 0.735579 11.8271 1.7353 11.3191 2.58516C10.248 4.37855 9.81894 4.4732 9.64393 4.36179C9.2369 4.10249 9.33891 3.31869 9.33891 2.76263C9.33891 1.02445 9.60593 0.299803 8.81787 0.112478C8.55585 0.0503654 8.36384 0.00895679 7.69479 0.00205536C6.83672 -0.00681791 6.10967 0.00501311 5.69864 0.203183C5.42462 0.335296 5.21361 0.630086 5.34262 0.646846C5.50163 0.667551 5.86165 0.74248 6.05267 0.998819C6.29969 1.3291 6.29069 2.07248 6.29069 2.07248C6.29069 2.07248 6.4327 4.11827 5.95966 4.37263C5.63464 4.54714 5.1896 4.19122 4.23453 2.56347C3.7455 1.73037 3.37547 0.808537 3.37547 0.808537C3.37547 0.808537 3.30447 0.636987 3.17746 0.545297C3.02345 0.433888 2.80743 0.398395 2.80743 0.398395L0.521262 0.412198C0.521262 0.412198 0.178236 0.422057 0.0522271 0.568959C-0.0597811 0.700086 0.0432264 0.970227 0.0432264 0.970227C0.0432264 0.970227 1.83336 5.09827 3.85951 7.17954C5.71864 9.0873 7.8288 8.96208 7.8288 8.96208H8.78487C8.78487 8.96208 9.07389 8.93054 9.2209 8.77377C9.35691 8.62983 9.35191 8.35969 9.35191 8.35969C9.35191 8.35969 9.33291 7.09475 9.92895 6.90842C10.516 6.72504 11.2701 8.13095 12.0691 8.67222C12.6732 9.08138 13.1322 8.99166 13.1322 8.99166L15.2693 8.96208C15.2693 8.96208 16.3874 8.89406 15.8574 8.02743Z" fill="currentColor"/></g></symbol></svg>